<svg width="24" height="24" viewBox="0 0 24 24" fill="none" xmlns="http://www.w3.org/2000/svg">
  <mask id="mask0" mask-type="alpha" maskUnits="userSpaceOnUse" x="0" y="0" width="24" height="24">
    <path fill-rule="evenodd" clip-rule="evenodd"
      d="M9.775 6.00132C9.775 4.77248 10.7712 3.77632 12 3.77632C13.2288 3.77632 14.225 4.77248 14.225 6.00132C14.225 6.29127 14.4601 6.52632 14.75 6.52632C15.0399 6.52632 15.275 6.29127 15.275 6.00132C15.275 4.19259 13.8087 2.72632 12 2.72632C10.1913 2.72632 8.725 4.19259 8.725 6.00132C8.725 6.29127 8.96005 6.52632 9.25 6.52632C9.53995 6.52632 9.775 6.29127 9.775 6.00132ZM6.44745 7.9886C6.45385 7.9387 6.49633 7.90132 6.54664 7.90132H17.4534C17.5037 7.90132 17.5461 7.9387 17.5525 7.9886L18.9628 18.9886C18.9705 19.0484 18.9239 19.1013 18.8636 19.1013H5.13638C5.07611 19.1013 5.02953 19.0484 5.0372 18.9886L6.44745 7.9886ZM6.54664 6.85132C5.96805 6.85132 5.47955 7.28119 5.40598 7.85508L3.99572 18.8551C3.90757 19.5426 4.44321 20.1513 5.13638 20.1513H18.8636C19.5568 20.1513 20.0924 19.5426 20.0043 18.8551L18.594 7.85508C18.5204 7.28119 18.0319 6.85132 17.4534 6.85132H6.54664ZM9.14513 6.36146C8.98906 6.31609 8.875 6.17203 8.875 6.00132C8.875 4.27543 10.2741 2.87632 12 2.87632C12.3017 2.87632 12.5934 2.91907 12.8694 2.99885C12.5934 2.91908 12.3017 2.87633 12 2.87633C10.2741 2.87633 8.87503 4.27544 8.87503 6.00133C8.87503 6.17202 8.98908 6.31608 9.14513 6.36146ZM14.6451 6.36146C14.4891 6.31608 14.375 6.17202 14.375 6.00133C14.375 4.92406 13.6578 4.0143 12.6748 3.72355C13.6578 4.01431 14.375 4.92406 14.375 6.00132C14.375 6.17202 14.4891 6.31609 14.6451 6.36146ZM5.08168 19.2453C5.09926 19.2493 5.11757 19.2513 5.13642 19.2513H18.8636C19.0143 19.2513 19.1308 19.119 19.1116 18.9695L17.7014 7.96954C17.6897 7.87842 17.6299 7.80401 17.5495 7.7705C17.6299 7.80401 17.6896 7.87842 17.7013 7.96953L19.1116 18.9695C19.1307 19.119 19.0143 19.2513 18.8636 19.2513H5.13638C5.11755 19.2513 5.09925 19.2493 5.08168 19.2453ZM5.55476 7.87415C5.61874 7.37512 6.04352 7.00132 6.54664 7.00132H17.4534C17.5506 7.00132 17.645 7.0153 17.7344 7.04145C17.645 7.0153 17.5507 7.00133 17.4534 7.00133H6.54667C6.04355 7.00133 5.61877 7.37512 5.55479 7.87416L4.14453 18.8742C4.08794 19.3156 4.32704 19.7196 4.69865 19.9009C4.32702 19.7197 4.08791 19.3156 4.1445 18.8742L5.55476 7.87415Z"
      fill="#666666"></path>
  </mask>
  <g mask="url(#mask0)">
    <path fill-rule="evenodd" clip-rule="evenodd"
      d="M24 16C18.4772 16 14 11.5228 14 6C14 3.74879 14.7439 1.67132 15.9993 0H0V24H24V16Z" fill="#666666"></path>
  </g>
</svg>