<svg width="24" height="24" viewBox="0 0 24 24" fill="none" xmlns="http://www.w3.org/2000/svg">
  <path fill-rule="evenodd" clip-rule="evenodd"
    d="M6.60214 4.28326C7.52975 3.90973 8.53984 3.78896 9.52852 3.93563C9.53887 3.93717 9.54915 3.93914 9.55934 3.94153C10.3277 4.12223 11.0529 4.44527 11.7005 4.8918C11.878 5.01418 12.1195 5.01423 12.2972 4.89185C12.9456 4.44522 13.6723 4.12221 14.4405 3.94153C14.4508 3.9391 14.4613 3.93711 14.4718 3.93556C15.4598 3.79029 16.4698 3.9096 17.3977 4.28326C17.403 4.28537 17.4082 4.28761 17.4133 4.28997C18.5156 4.79304 19.4544 5.60081 20.1207 6.6202C20.1219 6.62209 20.1232 6.62399 20.1244 6.6259C20.7229 7.57876 21.0265 8.69004 20.998 9.8172C20.9993 9.83044 21 9.84402 21 9.85794C20.997 12.3684 19.2327 14.6421 17.4611 16.3067C15.6721 17.9877 13.7844 19.1318 13.3714 19.3788L13.369 19.3802L12.559 19.8564C12.2159 20.058 11.7919 20.0634 11.4438 19.8706L10.4532 19.3219C10.4513 19.3209 10.4495 19.3199 10.4477 19.3188C10.4455 19.3176 10.4434 19.3163 10.4413 19.3151C10.0333 19.0691 8.19121 17.9431 6.44725 16.279C4.72062 14.6315 3.00648 12.3777 3.00343 9.87039C2.96384 8.72492 3.26755 7.59494 3.87536 6.62609C3.8766 6.62412 3.87785 6.62215 3.87913 6.6202C4.54548 5.60081 5.48428 4.79304 6.58651 4.28997C6.59166 4.28761 6.59688 4.28537 6.60214 4.28326ZM20.2638 9.75053C20.3218 9.55529 20.4793 9.47368 20.6336 9.482C20.4872 9.47945 20.3194 9.56318 20.2638 9.75053ZM6.89016 4.97581C5.92198 5.41947 5.09623 6.13021 4.50883 7.02762C3.98102 7.87026 3.71757 8.8534 3.75319 9.8503C3.75335 9.85476 3.75343 9.85923 3.75343 9.86369C3.75343 12.0474 5.2653 14.1146 6.96501 15.7364C8.6407 17.3354 10.4176 18.4249 10.8226 18.6692L11.8072 19.2145C11.9232 19.2788 12.0646 19.277 12.1789 19.2098L12.9865 18.7351C12.9869 18.7348 12.9873 18.7346 12.9877 18.7343C13.389 18.4944 15.2197 17.3837 16.9475 15.7602C18.6807 14.1317 20.2227 12.0685 20.2496 9.90899C20.2471 9.8882 20.2461 9.86653 20.2469 9.84403C20.2812 8.84914 20.0176 7.86724 19.4911 7.02777C18.9037 6.13029 18.0779 5.4195 17.1097 4.97581C16.3125 4.65641 15.4456 4.55329 14.5966 4.6753C13.9255 4.83518 13.2902 5.11854 12.7226 5.5095C12.2888 5.80833 11.7086 5.80838 11.2748 5.50926C10.7077 5.11831 10.0739 4.83505 9.40295 4.67524C8.55455 4.55218 7.68773 4.65625 6.89016 4.97581Z"
    fill="#666666"></path>
  <path fill-rule="evenodd" clip-rule="evenodd"
    d="M6.58654 4.28994C6.5917 4.28759 6.59691 4.28535 6.60217 4.28323C7.52978 3.90971 8.53988 3.78894 9.52855 3.93561C9.5389 3.93715 9.54919 3.93911 9.55937 3.94151C10.3277 4.1222 11.0529 4.44525 11.7005 4.89178C11.878 5.01416 12.1196 5.01421 12.2972 4.89182C12.9456 4.4452 13.6723 4.12218 14.4405 3.94151C14.4509 3.93908 14.4613 3.93709 14.4718 3.93554C15.4599 3.79026 16.4698 3.90958 17.3977 4.28323C17.403 4.28535 17.4082 4.28759 17.4134 4.28994C18.5156 4.79301 19.4544 5.60078 20.1207 6.62018L20.1244 6.62588C20.723 7.57874 21.0266 8.69002 20.998 9.81718C20.9994 9.83042 21 9.844 21 9.85792C20.997 12.3684 19.2328 14.6421 17.4612 16.3067C15.6721 17.9877 13.7845 19.1318 13.3714 19.3787L13.369 19.3802L12.559 19.8563C12.216 20.058 11.7919 20.0634 11.4438 19.8706L10.4532 19.3219L10.4477 19.3188L10.4413 19.315C10.0333 19.069 8.19124 17.9431 6.44729 16.279C4.72065 14.6315 3.00652 12.3777 3.00347 9.87037C2.96388 8.72489 3.26759 7.59491 3.87539 6.62607L3.87917 6.62018C4.54551 5.60078 5.48432 4.79301 6.58654 4.28994ZM2.85347 9.87305C2.81338 8.69855 3.12501 7.53993 3.74833 6.54636L3.75361 6.53811L3.75361 6.53811C4.43541 5.49507 5.39611 4.66839 6.52426 4.15348C6.53148 4.15019 6.53878 4.14706 6.54614 4.14409C7.49836 3.76066 8.53538 3.63663 9.55056 3.78723C9.56506 3.78938 9.57945 3.79214 9.59371 3.79549C10.3804 3.9805 11.1228 4.31123 11.7857 4.76829C11.9119 4.85532 12.0857 4.85538 12.2121 4.76829C12.8758 4.31114 13.6197 3.98046 14.4062 3.79549C14.4207 3.79209 14.4353 3.7893 14.45 3.78714C15.4643 3.638 16.5011 3.76048 17.4538 4.14409C17.4611 4.14705 17.4684 4.15019 17.4756 4.15348L17.4134 4.28994L17.4756 4.15348C18.6038 4.66838 19.5645 5.49505 20.2463 6.53807M20.2463 6.53811L20.2514 6.54604L20.2514 6.54609C20.8642 7.52161 21.1757 8.65871 21.1482 9.81224C21.1494 9.82732 21.1501 9.84261 21.15 9.8581C21.147 12.435 19.3404 14.7468 17.5639 16.416C15.7629 18.1082 13.8643 19.2588 13.4484 19.5075L13.4479 19.5078L13.4455 19.5092L13.445 19.5095L12.635 19.9856C12.2462 20.2142 11.7656 20.2203 11.3711 20.0018L10.3805 19.4531L10.4532 19.3219L10.3805 19.4531L10.3728 19.4488L10.3639 19.4435L10.4406 19.3162L10.3639 19.4435C9.95295 19.1957 8.0997 18.0631 6.34373 16.3875C4.61197 14.7351 2.85774 12.4445 2.85347 9.87305M20.2487 9.89976C20.249 9.90285 20.2493 9.90592 20.2497 9.90897C20.2227 12.0684 18.6807 14.1317 16.9476 15.7601C15.2197 17.3837 13.389 18.4944 12.9878 18.7343L12.9866 18.735L12.1789 19.2098L12.1029 19.0805L12.9096 18.6063L12.9105 18.6057L12.9108 18.6056L12.9108 18.6056C13.3092 18.3673 15.1289 17.2632 16.8449 15.6508C18.5704 14.0295 20.0691 12.0072 20.0996 9.91637C20.097 9.89106 20.0961 9.86519 20.097 9.83884C20.1302 8.87423 19.8749 7.92238 19.3648 7.10867C18.7936 6.23634 17.9911 5.54543 17.0505 5.11367C16.2809 4.806 15.4444 4.70619 14.6248 4.82278C13.9742 4.97863 13.3583 5.25379 12.8078 5.63301C12.3227 5.96712 11.6748 5.96719 11.1897 5.63273C10.6396 5.2535 10.0252 4.97846 9.3748 4.8227C8.55598 4.70513 7.71952 4.80578 6.94937 5.11367C6.00887 5.5454 5.20646 6.23624 4.6352 7.10849C4.12387 7.92538 3.8686 8.87842 3.90313 9.84492C3.90335 9.85117 3.90346 9.85742 3.90346 9.86367C3.90346 11.9821 5.37459 14.0115 7.0686 15.6279C8.72907 17.2123 10.4912 18.294 10.8978 18.5393L11.8799 19.0833C11.9495 19.1219 12.0343 19.1208 12.1029 19.0805L12.1789 19.2098C12.0646 19.277 11.9232 19.2788 11.8072 19.2145L10.8227 18.6692C10.4177 18.4248 8.64073 17.3354 6.96505 15.7364C5.26534 14.1146 3.75346 12.0474 3.75346 9.86367C3.75346 9.8592 3.75338 9.85474 3.75323 9.85028C3.71761 8.85337 3.98106 7.87024 4.50887 7.0276C5.09626 6.13019 5.92201 5.41945 6.89019 4.97578C7.68776 4.65622 8.55459 4.55216 9.40299 4.67522C10.074 4.83503 10.7078 5.11829 11.2748 5.50924C11.7086 5.80835 12.2888 5.8083 12.7227 5.50948C13.2903 5.11852 13.9255 4.83515 14.5967 4.67527C15.4456 4.55326 16.3125 4.65638 17.1097 4.97578C18.0779 5.41947 18.9037 6.13026 19.4911 7.02774C19.9541 7.7659 20.2138 8.61418 20.2464 9.48458C20.2464 9.48634 20.2465 9.48809 20.2466 9.48985C20.2497 9.57511 20.2506 9.66059 20.2493 9.74619C20.2488 9.77878 20.248 9.81139 20.2469 9.84401C20.2462 9.86321 20.2469 9.8818 20.2487 9.89976ZM20.2639 9.75051C20.2894 9.66443 20.3386 9.60022 20.3986 9.55621C20.4691 9.50443 20.5545 9.4806 20.6336 9.48197C20.5509 9.47751 20.4672 9.49893 20.3984 9.54987C20.339 9.5939 20.2907 9.65999 20.2639 9.75051Z"
    fill="#666666"></path>
</svg>