<svg className="searchiconmenu" width="29" viewBox="0 0 24 24" fill="none" xmlns="http://www.w3.org/2000/svg">
  <path fill-rule="evenodd" clip-rule="evenodd"
    d="M7.48429 0.89209C3.77381 0.89209 0.765869 3.90003 0.765869 7.61051C0.765869 11.321 3.77381 14.3289 7.48429 14.3289C11.1948 14.3289 14.2027 11.321 14.2027 7.61051C14.2027 3.90003 11.1948 0.89209 7.48429 0.89209ZM1.82376 7.61051C1.82376 4.48429 4.35807 1.94998 7.48429 1.94998C10.6105 1.94998 13.1448 4.48429 13.1448 7.61051C13.1448 10.7367 10.6105 13.271 7.48429 13.271C4.35807 13.271 1.82376 10.7367 1.82376 7.61051ZM13.4162 12.825C13.2096 12.6185 12.8747 12.6185 12.6682 12.825C12.4616 13.0316 12.4616 13.3665 12.6682 13.5731L15.5428 16.4477C15.7493 16.6543 16.0842 16.6543 16.2908 16.4477C16.4974 16.2411 16.4974 15.9062 16.2908 15.6997L13.4162 12.825Z"
    fill="#666666"></path>
</svg>