<svg className="logo" width="264" height="30" viewBox="0 0 255 20" fill="none" xmlns="http://www.w3.org/2000/svg">
  <path fill-rule="evenodd" clip-rule="evenodd"
    d="M23.3551 12.2659V12.7103C23.3551 12.7991 23.3551 12.9768 23.1675 13.2434V13.5989C23.1675 15.8204 22.7923 17.1534 21.5728 18.1308C20.2595 19.2861 17.9144 19.3749 14.9127 19.3749H9.19059C6.37645 19.3749 4.12514 19.2861 2.62426 18.042C1.311 16.9756 0.748169 15.2873 0.748169 12.5325V7.73397C0.748169 4.80152 1.311 3.02428 2.62426 1.95793C4.03133 0.802724 6.09503 0.625 9.19059 0.625H14.9127C20.3533 0.625 23.0737 1.42476 23.0737 5.95673V6.93421V7.37852H20.0719V6.57876C20.0719 4.26835 19.1339 3.46859 16.2259 3.46859H8.25254C6.37645 3.46859 5.3446 3.73518 4.68796 4.53493C4.12514 5.15697 4.12514 6.13445 4.12514 7.55625V12.3548C4.12514 13.7766 4.21894 14.6652 4.68796 15.3761C5.3446 16.1759 6.28264 16.4425 8.25254 16.4425H16.2259C19.4153 16.4425 20.2595 15.8204 20.2595 13.2434V12.2659H23.3551ZM27.3887 0.80268H40.9904C45.5868 0.80268 48.5886 1.06927 48.5886 5.42351V7.37848C48.5886 9.24459 48.1195 10.3109 46.6187 10.8441C47.8381 11.555 48.4009 12.7102 48.4009 14.3097V19.1083H45.2116V14.8429C45.2116 12.5325 44.4612 12.3548 41.2718 12.3548H30.5781V19.1083H27.3887V0.80268ZM45.2116 6.93417V6.04555C45.2116 4.17944 44.8364 3.64627 41.5532 3.64627H30.4843V9.42231H41.5532C44.8364 9.42231 45.2116 8.978 45.2116 6.93417ZM55.7176 0.80268H52.5283V19.1083H55.7176V0.80268ZM74.1972 8.17828C76.7299 8.17828 78.3246 8.26715 79.4503 8.97804C81.045 9.95553 81.3264 11.4662 81.514 13.6877C81.514 18.3086 78.606 19.2861 73.4468 19.2861H67.2557C62.0964 19.2861 59.9389 17.7754 59.9389 14.2209V13.0657V12.3548H63.1283V13.2434V13.9543C63.1283 15.6427 63.7849 16.4425 67.9123 16.4425H72.6963C77.2928 16.4425 78.2308 15.9982 78.2308 13.5989C78.2308 11.555 77.5742 11.1996 74.6662 11.1996H66.8805C62.5654 11.1996 59.7513 10.311 59.7513 5.95673C59.7513 1.51362 62.7531 0.625 68.0999 0.625H72.2273C75.6981 0.625 78.0432 0.713862 79.4503 1.86907C80.4821 2.66883 80.8573 3.9129 80.8573 5.69014V6.57876H77.668V5.779C77.668 3.64631 77.0114 3.29086 73.6344 3.29086H67.4433C63.6911 3.29086 63.1283 3.9129 63.1283 5.69014C63.1283 7.73397 63.9725 8.17828 67.6309 8.17828H74.1972ZM121.944 9.24459C123.257 8.44483 123.538 7.37848 123.538 5.6901C123.538 3.82399 123.257 2.57992 121.756 1.6913C120.537 0.980405 118.848 0.80268 116.034 0.80268H102.432V19.1083H115.565C120.818 19.1083 124.195 18.8417 124.195 14.6652V12.8879C124.195 10.933 123.445 9.77776 121.944 9.24459ZM115.659 8.08938H105.716V3.64627H115.94C117.816 3.64627 119.13 3.64627 119.786 4.00172C120.161 4.17944 120.255 4.80148 120.255 5.86782C120.349 8.00051 119.88 8.08938 115.659 8.08938ZM120.912 13.7766C120.912 15.6427 120.537 16.1758 117.066 16.1758H105.622V11.0218H117.066C120.631 11.0218 120.912 11.4661 120.912 13.7766ZM125.884 19.1083L137.046 0.80268H140.705L151.961 19.1083H148.397L145.958 15.2872H131.981L129.636 19.1083H125.884ZM133.482 12.5325H144.175L138.735 3.91286L133.482 12.5325ZM168.096 0.80268H154.588V19.1083H157.777V12.3548H168.471C171.66 12.3548 172.411 12.5325 172.411 14.8429V19.1083H175.6V14.3097C175.6 12.7102 175.037 11.555 173.818 10.8441C175.319 10.3109 175.788 9.24459 175.788 7.37848V5.42351C175.881 1.06927 172.786 0.80268 168.096 0.80268ZM172.411 6.04555V6.93417C172.411 8.978 172.035 9.42231 168.752 9.42231H157.683V3.64627H168.752C172.035 3.64627 172.411 4.17944 172.411 6.04555ZM180.009 0.80268H193.61C198.207 0.80268 201.209 1.06927 201.209 5.42351V7.37848C201.209 9.24459 200.74 10.3109 199.239 10.8441C200.458 11.555 201.021 12.7102 201.021 14.3097V19.1083H197.832V14.8429C197.832 12.5325 197.081 12.3548 193.892 12.3548H183.198V19.1083H180.009V0.80268ZM197.925 6.93417V6.04555C197.925 4.17944 197.456 3.64627 194.267 3.64627H183.198V9.42231H194.267C197.55 9.42231 197.925 8.978 197.925 6.93417ZM226.911 1.95793C225.41 0.802724 223.347 0.625 219.97 0.625H213.872C210.589 0.625 208.432 0.802724 206.931 1.95793C205.524 3.02428 204.961 4.80152 204.961 7.73397V12.5325C204.961 15.2873 205.524 16.8868 206.931 18.042C208.525 19.2861 210.964 19.3749 213.872 19.3749H219.97C222.878 19.3749 225.317 19.2861 226.911 18.042C228.318 16.9756 228.881 15.2873 228.881 12.4437V7.55625C228.881 4.71266 228.318 3.02428 226.911 1.95793ZM224.848 15.2873C224.285 16.087 223.159 16.3536 221.002 16.3536H212.747C210.495 16.3536 209.557 16.087 208.901 15.2873C208.338 14.4875 208.338 13.6877 208.338 12.1771V7.73397C208.338 6.31218 208.338 5.33469 208.901 4.6238C209.464 3.9129 210.589 3.55745 212.747 3.55745H221.002C223.253 3.55745 224.191 3.82404 224.848 4.6238C225.317 5.33469 225.41 6.22332 225.41 7.46739V12.4437C225.504 13.6877 225.317 14.6652 224.848 15.2873ZM246.892 8.17828C249.424 8.17828 251.019 8.26715 252.145 8.97804C253.833 9.95553 254.115 11.4662 254.302 13.7766C254.302 18.3974 251.394 19.3749 246.235 19.3749H240.044C234.885 19.3749 232.727 17.8643 232.727 14.3098V13.1546V12.4437H235.916V13.2434V13.9543C235.916 15.6427 236.573 16.4425 240.7 16.4425H245.485C250.081 16.4425 251.019 15.9982 251.019 13.5989C251.019 11.555 250.362 11.1996 247.454 11.1996H239.669C235.354 11.1996 232.54 10.311 232.54 5.95673C232.54 1.51362 235.541 0.625 240.888 0.625H244.922C248.392 0.625 250.738 0.713862 252.145 1.86907C253.177 2.66883 253.552 3.9129 253.552 5.69014V6.57876H250.362V5.77901C250.362 3.64631 249.706 3.29086 246.329 3.29086H240.138C236.385 3.29086 235.823 3.9129 235.823 5.69014C235.823 7.73397 236.667 8.17828 240.325 8.17828H246.892Z"
    fill="#000"></path>
</svg>